<svg width="89" height="89" xmlns="http://www.w3.org/2000/svg" xmlns:xlink="http://www.w3.org/1999/xlink" xml:space="preserve" overflow="hidden"><defs><clipPath id="clip0"><rect x="592" y="312" width="89" height="89"/></clipPath></defs><g clip-path="url(#clip0)" transform="translate(-592 -312)"><path d="M637.427 320.029 605.906 339.133 605.906 374.48 637.427 393.583 668.948 374.48 668.948 339.133ZM666.232 339.656 652.956 347.702 624.15 330.244 637.427 322.198ZM637.427 357.113 608.622 339.656 622.362 331.328 651.167 348.786ZM607.76 341.3 636.5 358.719 636.5 390.853 607.76 373.435ZM638.354 390.853 638.354 358.719 667.094 341.3 667.094 373.435Z" stroke="#263238" stroke-width="0.927083" fill="#263238"/><path d="M642.963 360.315 642.062 360.857 642.062 368.89 644.871 367.206 649.506 364.425 650.406 363.882 650.406 355.851 647.598 357.536ZM648.552 362.833 643.917 365.614 643.917 361.906 648.552 359.125Z" stroke="#263238" stroke-width="0.927083" fill="#263238"/></g></svg>