<svg width="89" height="89" xmlns="http://www.w3.org/2000/svg" xmlns:xlink="http://www.w3.org/1999/xlink" xml:space="preserve" overflow="hidden"><defs><clipPath id="clip0"><rect x="806" y="142" width="89" height="89"/></clipPath></defs><g clip-path="url(#clip0)" transform="translate(-806 -142)"><path d="M882.021 192.907 882.021 161.469 822.688 161.469 822.688 157.668C822.683 153.625 819.407 150.348 815.364 150.344L815.271 150.344C814.759 150.344 814.344 150.759 814.344 151.271 814.344 151.783 814.759 152.198 815.271 152.198L815.364 152.198C818.383 152.201 820.83 154.648 820.833 157.668L820.833 204.115C820.838 207.546 823.513 210.382 826.939 210.585 824.107 212.333 823.228 216.046 824.976 218.878 826.724 221.71 830.437 222.588 833.269 220.84 836.101 219.092 836.98 215.379 835.232 212.547 834.746 211.76 834.085 211.095 833.301 210.604L867.696 210.604C864.875 212.371 864.02 216.089 865.787 218.91 867.553 221.73 871.272 222.585 874.092 220.818 876.913 219.052 877.768 215.333 876.001 212.513 875.517 211.74 874.865 211.088 874.092 210.604L881.094 210.604C881.606 210.604 882.021 210.189 882.021 209.677 882.021 209.165 881.606 208.75 881.094 208.75L827.323 208.75C824.764 208.747 822.691 206.673 822.688 204.115L822.688 198.47ZM870.896 219.875C868.592 219.875 866.724 218.007 866.724 215.703 866.724 213.399 868.592 211.531 870.896 211.531 873.2 211.531 875.068 213.399 875.068 215.703 875.065 218.006 873.199 219.872 870.896 219.875ZM830.104 219.875C827.8 219.875 825.932 218.007 825.932 215.703 825.932 213.399 827.8 211.531 830.104 211.531 832.408 211.531 834.276 213.399 834.276 215.703 834.273 218.006 832.407 219.872 830.104 219.875ZM822.688 174.448 835.667 174.448 835.667 183.719 822.688 183.719ZM865.333 183.719 852.354 183.719 852.354 174.448 865.333 174.448ZM867.188 174.448 880.167 174.448 880.167 183.719 867.188 183.719ZM852.354 185.573 865.333 185.573 865.333 192.609 852.354 193.824ZM850.5 193.999 837.521 195.215 837.521 185.573 850.5 185.573ZM852.354 172.594 852.354 163.323 865.333 163.323 865.333 172.594ZM850.5 172.594 837.521 172.594 837.521 163.323 850.5 163.323ZM850.5 174.448 850.5 183.719 837.521 183.719 837.521 174.448ZM822.688 185.573 835.667 185.573 835.667 195.39 822.688 196.605ZM867.188 192.433 867.188 185.573 880.167 185.573 880.167 191.218ZM880.167 172.594 867.188 172.594 867.188 163.323 880.167 163.323ZM835.667 163.323 835.667 172.594 822.688 172.594 822.688 163.323Z" stroke="#263238" stroke-width="0.927034" fill="#263238"/></g></svg>