<svg width="81" height="81" xmlns="http://www.w3.org/2000/svg" xmlns:xlink="http://www.w3.org/1999/xlink" xml:space="preserve" overflow="hidden"><defs><clipPath id="clip0"><rect x="592" y="155" width="89" height="89"/></clipPath></defs><g clip-path="url(#clip0)" transform="translate(-592 -155)"><path d="M668.948 174.469 604.052 174.469C602.004 174.469 600.344 176.129 600.344 178.177L600.344 220.823C600.344 222.871 602.004 224.531 604.052 224.531L668.948 224.531C670.996 224.531 672.656 222.871 672.656 220.823L672.656 178.177C672.656 176.129 670.996 174.469 668.948 174.469ZM604.052 176.323 668.948 176.323C669.972 176.323 670.802 177.153 670.802 178.177L670.802 193.938 602.198 193.938 602.198 178.177C602.198 177.153 603.028 176.323 604.052 176.323ZM670.802 195.792 670.802 203.208 602.198 203.208 602.198 195.792ZM668.948 222.677 604.052 222.677C603.028 222.677 602.198 221.847 602.198 220.823L602.198 205.062 670.802 205.062 670.802 220.823C670.802 221.847 669.972 222.677 668.948 222.677Z" stroke="#263238" stroke-width="1.33333" fill="#263238"/><path d="M610.542 212.479 625.375 212.479 625.375 214.333 610.542 214.333Z" stroke="#263238" stroke-width="1.33333" fill="#263238"/><path d="M629.083 212.479 636.5 212.479 636.5 214.333 629.083 214.333Z" stroke="#263238" stroke-width="1.33333" fill="#263238"/></g></svg>