<?xml version="1.0" standalone="no"?>
<!DOCTYPE svg PUBLIC "-//W3C//DTD SVG 20010904//EN"
 "http://www.w3.org/TR/2001/REC-SVG-20010904/DTD/svg10.dtd">
<svg version="1.0" xmlns="http://www.w3.org/2000/svg"
 width="996.000000pt" height="458.000000pt" viewBox="0 0 996.000000 458.000000"
 preserveAspectRatio="xMidYMid meet">

<g transform="translate(0.000000,458.000000) scale(0.100000,-0.100000)"
fill="#000000" stroke="none">
<path d="M345 3555 c-148 -85 -276 -162 -282 -172 -19 -25 -19 -1852 0 -1876
15 -20 1094 -637 1113 -637 15 0 1077 603 1106 628 16 14 18 42 18 317 l0 301
243 139 c133 76 254 147 270 157 l27 19 0 318 c0 239 -3 321 -12 333 -16 19
-555 328 -573 328 -13 0 -551 -304 -570 -322 -6 -5 -12 -131 -15 -315 l-5
-306 -215 -123 c-118 -68 -218 -124 -222 -124 -5 0 -8 260 -8 578 0 449 -3
581 -12 591 -25 25 -554 321 -573 321 -11 0 -141 -70 -290 -155z m514 -59
c118 -67 216 -127 218 -132 1 -5 -97 -66 -219 -135 l-222 -126 -210 120 c-116
66 -217 125 -224 132 -11 10 28 37 205 138 120 69 223 126 228 126 6 0 107
-55 224 -123z m1661 -327 c99 -57 180 -106 180 -109 0 -3 -100 -63 -222 -133
l-222 -127 -223 127 c-123 70 -223 130 -223 133 0 3 100 63 222 133 l222 126
43 -24 c24 -13 124 -70 223 -126z m-2103 -37 l173 -97 0 -602 c0 -331 3 -608
6 -616 3 -8 124 -82 270 -163 l264 -149 0 -257 c0 -142 -2 -258 -4 -258 -2 0
-225 126 -495 281 l-491 280 0 870 0 869 53 -30 c28 -16 130 -74 224 -128z
m713 -406 l0 -564 -220 -126 c-121 -69 -222 -126 -225 -126 -3 0 -4 253 -3
562 l3 562 220 127 c121 70 221 128 223 128 1 1 2 -253 2 -563z m860 128 l220
-126 0 -254 c0 -140 -2 -254 -5 -254 -3 0 -104 57 -225 126 l-220 126 0 254
c0 140 2 254 5 254 3 0 104 -57 225 -126z m758 -130 l-3 -257 -215 -123 c-118
-68 -218 -124 -222 -124 -5 0 -8 114 -8 254 l0 254 218 126 c119 69 220 125
225 125 4 1 6 -114 5 -255z m-768 -475 c99 -57 180 -106 180 -109 0 -4 -64
-43 -142 -87 -79 -44 -291 -165 -473 -268 -181 -103 -340 -192 -351 -197 -18
-8 -58 10 -242 113 -122 68 -222 126 -222 129 0 3 222 132 493 287 l492 282
42 -24 c24 -13 124 -70 223 -126z m228 -445 l-3 -257 -480 -274 c-264 -151
-486 -277 -492 -280 -10 -4 -13 51 -13 253 l0 259 488 277 c268 152 490 277
495 277 4 1 6 -114 5 -255z"/>
<path d="M3560 2310 l0 -750 355 0 355 0 0 105 0 105 -232 2 -233 3 -3 643 -2
642 -120 0 -120 0 0 -750z"/>
<path d="M9670 2310 l0 -750 115 0 115 0 0 750 0 750 -115 0 -115 0 0 -750z"/>
<path d="M4723 2565 c-275 -60 -446 -352 -378 -644 72 -302 409 -476 671 -346
40 19 86 51 103 70 17 19 33 35 36 35 3 0 5 -27 5 -60 l0 -60 115 0 115 0 0
495 0 495 -115 0 -115 0 0 -66 0 -66 -44 45 c-97 100 -236 136 -393 102z m253
-215 c97 -42 168 -147 180 -268 14 -133 -63 -272 -178 -322 -111 -49 -242 -26
-325 57 -66 66 -87 122 -88 233 0 82 4 103 26 151 71 150 235 214 385 149z"/>
<path d="M6644 2565 c-120 -26 -228 -100 -298 -203 -61 -89 -87 -167 -93 -277
-19 -321 233 -577 542 -551 84 6 197 58 244 111 17 19 33 35 36 35 3 0 5 -27
5 -60 l0 -60 115 0 115 0 0 495 0 495 -115 0 -115 0 0 -67 0 -67 -34 40 c-61
71 -187 124 -291 123 -27 0 -78 -7 -111 -14z m263 -221 c193 -92 231 -377 71
-531 -53 -51 -122 -78 -203 -77 -119 0 -211 60 -264 173 -36 77 -37 211 -3
286 73 158 245 222 399 149z"/>
<path d="M8896 2564 c-189 -46 -336 -197 -382 -391 -30 -127 -5 -296 60 -407
61 -104 193 -192 332 -221 195 -41 364 4 509 137 l68 62 -37 32 c-20 18 -55
44 -76 59 l-39 27 -48 -42 c-138 -123 -320 -142 -445 -47 -50 39 -96 109 -105
160 l-6 37 391 0 390 0 7 31 c9 38 -2 137 -22 209 -72 261 -335 417 -597 354z
m236 -187 c75 -31 144 -118 163 -204 l7 -33 -286 0 c-322 0 -300 -7 -266 82
46 120 149 183 281 174 37 -3 82 -11 101 -19z"/>
<path d="M5580 2055 l0 -495 115 0 115 0 0 385 0 385 205 0 205 0 0 110 0 110
-320 0 -320 0 0 -495z"/>
<path d="M7481 2423 c27 -71 113 -293 191 -496 l142 -367 150 2 150 3 187 485
c104 267 188 489 189 493 0 4 -52 6 -116 5 l-116 -3 -145 -378 c-81 -208 -149
-374 -153 -370 -4 4 -72 176 -151 381 l-143 372 -117 0 -117 0 49 -127z"/>
</g>
</svg>
