<?xml version="1.0" standalone="no"?>
<!DOCTYPE svg PUBLIC "-//W3C//DTD SVG 20010904//EN"
 "http://www.w3.org/TR/2001/REC-SVG-20010904/DTD/svg10.dtd">
<svg version="1.0" xmlns="http://www.w3.org/2000/svg"
 width="996.000000pt" height="458.000000pt" viewBox="0 0 996.000000 458.000000"
 preserveAspectRatio="xMidYMid meet">

<g transform="translate(0.000000,458.000000) scale(0.100000,-0.100000)"
fill="#000000" stroke="none">
<path d="M5239 3856 c-277 -58 -489 -253 -545 -502 -23 -104 -16 -283 15 -374
30 -89 104 -194 183 -260 36 -30 164 -111 284 -179 369 -209 401 -229 463
-287 41 -38 71 -77 93 -122 29 -58 33 -76 32 -142 -1 -126 -65 -235 -173 -293
-173 -94 -436 -87 -696 19 -60 25 -117 48 -126 50 -11 4 -29 -22 -70 -101
l-54 -107 30 -24 c51 -41 265 -142 356 -168 133 -38 235 -49 388 -43 223 9
393 65 531 176 182 145 261 314 261 556 0 168 -45 285 -152 400 -75 80 -133
119 -414 275 -311 173 -380 217 -440 282 -79 85 -100 135 -100 238 0 98 19
144 86 211 125 125 379 140 679 40 50 -17 95 -31 99 -31 5 0 29 48 55 107 56
126 64 110 -91 185 -156 75 -264 100 -463 104 -114 2 -185 -1 -231 -10z"/>
<path d="M7197 3860 c-300 -54 -517 -218 -669 -505 -73 -138 -123 -328 -146
-547 -11 -113 -7 -504 7 -588 6 -41 14 -91 17 -110 9 -64 54 -218 82 -282 134
-315 353 -469 720 -509 120 -13 245 -7 373 17 l86 17 285 -166 c156 -91 289
-167 296 -169 10 -3 173 264 171 281 0 3 -100 55 -222 114 l-222 108 60 62
c155 158 252 370 307 667 29 157 32 599 5 755 -43 246 -115 429 -224 566 -71
89 -158 158 -268 210 -136 66 -213 81 -425 85 -102 1 -207 -1 -233 -6z m278
-311 c280 -52 415 -281 456 -769 36 -440 -45 -841 -204 -1003 -97 -99 -194
-137 -352 -137 -266 0 -428 132 -510 414 -27 95 -27 95 -46 226 -14 92 -18
487 -7 610 28 298 141 524 306 613 94 51 234 69 357 46z"/>
<path d="M8720 2595 l0 -1245 590 0 590 0 0 160 0 160 -387 0 -388 0 3 1085 2
1085 -205 0 -205 0 0 -1245z"/>
<path d="M186 3813 c-8 -26 -62 -529 -85 -793 -43 -477 -75 -1010 -87 -1424
l-7 -236 185 0 185 0 7 303 c7 318 30 895 46 1157 22 352 34 510 40 510 4 0
322 -991 592 -1848 l39 -123 156 3 155 3 78 245 c43 135 176 551 295 925 120
374 224 703 232 730 30 103 32 96 63 -240 39 -429 68 -935 86 -1462 l7 -203
203 0 204 0 -4 38 c-3 20 -8 127 -11 237 -14 490 -69 1204 -145 1900 -17 148
-30 275 -30 282 0 11 -49 13 -247 11 l-246 -3 -294 -895 c-162 -492 -299 -899
-303 -904 -5 -4 -94 254 -200 575 -105 321 -239 729 -298 907 l-106 322 -252
0 c-232 0 -253 -1 -258 -17z"/>
<path d="M3022 2468 c260 -810 292 -915 314 -1037 15 -81 15 -93 0 -152 -38
-146 -155 -258 -307 -290 -28 -6 -102 -9 -165 -7 l-114 3 0 -106 0 -106 83
-28 c230 -77 467 -3 682 211 338 338 603 992 810 1996 25 120 45 221 45 224 0
2 -86 3 -192 2 l-191 -3 -23 -160 c-55 -377 -153 -798 -269 -1155 -37 -113
-71 -209 -76 -214 -5 -6 -9 8 -9 36 0 127 -36 265 -258 983 l-158 510 -200 3
-201 2 229 -712z"/>
</g>
</svg>
