<?xml version="1.0" standalone="no"?>
<!DOCTYPE svg PUBLIC "-//W3C//DTD SVG 20010904//EN"
 "http://www.w3.org/TR/2001/REC-SVG-20010904/DTD/svg10.dtd">
<svg version="1.0" xmlns="http://www.w3.org/2000/svg"
 width="300.000000pt" height="76.000000pt" viewBox="0 0 300.000000 76.000000"
 preserveAspectRatio="xMidYMid meet">

<g transform="translate(0.000000,76.000000) scale(0.100000,-0.100000)"
fill="#000000" stroke="none">
<path d="M70 742 c-66 -33 -70 -52 -70 -362 0 -403 -23 -380 380 -380 310 0
329 4 362 70 16 31 18 68 18 310 0 403 23 380 -380 380 -242 0 -279 -2 -310
-18z m401 -152 c41 -12 74 -44 83 -82 7 -32 -14 -92 -38 -105 -14 -8 -12 -12
13 -31 33 -24 54 -81 44 -121 -20 -81 -68 -101 -243 -101 l-130 0 0 218 c0
120 3 222 7 225 10 11 224 8 264 -3z"/>
<path d="M290 470 l0 -60 68 0 c84 0 112 16 112 65 0 45 -20 55 -109 55 l-71
0 0 -60z"/>
<path d="M290 285 l0 -65 83 0 c95 0 117 13 117 67 0 50 -25 63 -118 63 l-82
0 0 -65z"/>
<path d="M930 391 l0 -181 73 0 c132 0 187 30 187 103 0 31 -7 45 -31 68 -17
16 -26 29 -20 29 19 0 42 66 32 92 -19 50 -46 62 -147 66 l-94 4 0 -181z m178
123 c28 -20 30 -69 3 -84 -11 -5 -47 -10 -80 -10 l-61 0 0 55 0 55 58 0 c36 0
66 -6 80 -16z m17 -159 c30 -29 31 -45 6 -76 -16 -19 -30 -24 -90 -27 l-71 -4
0 66 0 66 65 0 c57 0 69 -3 90 -25z"/>
<path d="M1838 546 c-11 -8 -18 -26 -18 -45 0 -24 -4 -31 -20 -31 -11 0 -20
-7 -20 -15 0 -8 9 -15 20 -15 19 0 20 -7 20 -105 0 -114 6 -125 65 -125 21 0
26 4 21 16 -3 9 -6 18 -6 20 0 2 -9 4 -20 4 -19 0 -20 7 -20 95 0 88 1 95 20
95 11 0 20 7 20 15 0 8 -9 15 -19 15 -16 0 -20 8 -23 44 -3 40 -5 43 -20 32z"/>
<path d="M2212 538 c-7 -7 -12 -25 -12 -40 0 -18 -5 -28 -15 -28 -8 0 -15 -7
-15 -15 0 -8 7 -15 15 -15 12 0 15 -16 15 -87 0 -107 13 -137 58 -141 27 -3
32 0 32 17 0 14 -6 21 -20 21 -25 0 -32 27 -28 115 3 64 5 70 26 73 12 2 22
10 22 17 0 7 -10 15 -22 17 -19 2 -24 10 -26 41 -3 39 -10 45 -30 25z"/>
<path d="M1324 468 c-51 -13 -77 -50 -81 -116 -6 -91 37 -142 118 -142 92 0
145 98 106 193 -8 18 -21 38 -30 45 -24 20 -77 30 -113 20z m86 -53 c19 -20
24 -37 24 -77 0 -43 -4 -54 -28 -74 -43 -37 -87 -28 -114 23 -23 43 -5 132 30
146 31 13 66 6 88 -18z"/>
<path d="M1615 473 c-66 -12 -95 -54 -95 -139 0 -50 3 -59 34 -90 29 -29 41
-34 81 -34 40 0 52 5 81 34 31 31 34 40 34 90 0 32 -6 69 -14 84 -20 39 -74
63 -121 55z m74 -59 c31 -39 29 -117 -4 -149 -31 -32 -69 -32 -100 0 -20 19
-25 34 -25 73 0 65 27 102 75 102 24 0 39 -7 54 -26z"/>
<path d="M2000 469 c-40 -8 -60 -32 -60 -70 0 -35 19 -50 94 -74 65 -21 79
-41 51 -69 -25 -24 -72 -20 -99 9 -24 25 -56 34 -56 14 0 -6 13 -24 29 -40 23
-23 38 -29 71 -29 71 0 110 30 110 85 0 31 -21 46 -94 70 -86 28 -91 74 -9 75
22 0 37 -7 45 -20 15 -23 48 -27 48 -5 0 21 -37 52 -68 57 -15 2 -43 1 -62 -3z"/>
<path d="M2570 469 c-19 -4 -45 -20 -59 -35 -22 -26 -22 -28 -5 -35 14 -5 24
0 37 17 27 35 90 34 113 -2 22 -32 13 -40 -60 -53 -84 -15 -106 -32 -106 -81
0 -29 6 -43 22 -54 29 -21 97 -20 127 0 22 16 24 16 33 0 5 -9 17 -16 26 -16
15 0 17 10 14 83 -4 111 -9 142 -30 159 -21 19 -67 26 -112 17z m100 -138 c0
-21 -22 -65 -38 -77 -22 -17 -74 -18 -90 -2 -32 32 -7 64 59 77 61 12 69 12
69 2z"/>
<path d="M2845 460 c-28 -14 -35 -15 -35 -4 0 8 -7 14 -15 14 -13 0 -15 -24
-13 -177 3 -150 5 -178 18 -178 11 0 16 14 18 58 3 53 13 70 27 47 8 -14 58
-13 89 2 73 33 87 168 23 225 -31 29 -72 33 -112 13z m92 -47 c27 -40 23 -116
-7 -148 -13 -14 -33 -25 -45 -25 -26 0 -60 36 -69 73 -9 36 10 104 32 116 33
20 70 13 89 -16z"/>
<path d="M2332 343 c3 -115 5 -128 21 -128 15 0 18 12 20 92 3 102 12 120 60
125 46 4 51 38 6 38 -18 0 -41 -7 -51 -17 -17 -15 -18 -15 -18 0 0 10 -8 17
-20 17 -20 0 -20 -5 -18 -127z"/>
</g>
</svg>
