<?xml version="1.0" standalone="no"?>
<!DOCTYPE svg PUBLIC "-//W3C//DTD SVG 20010904//EN"
 "http://www.w3.org/TR/2001/REC-SVG-20010904/DTD/svg10.dtd">
<svg version="1.0" xmlns="http://www.w3.org/2000/svg"
 width="996.000000pt" height="458.000000pt" viewBox="0 0 996.000000 458.000000"
 preserveAspectRatio="xMidYMid meet">

<g transform="translate(0.000000,458.000000) scale(0.100000,-0.100000)"
fill="#000000" stroke="none">
<path d="M910 4136 c0 -3 63 -114 141 -248 77 -134 176 -304 219 -378 43 -74
118 -205 167 -290 50 -85 184 -317 298 -515 483 -836 453 -785 463 -785 4 0
35 49 68 108 86 150 484 839 613 1062 60 102 166 286 238 410 71 124 182 316
246 427 64 111 117 204 117 207 0 3 -177 6 -392 6 l-393 0 -36 -63 c-20 -34
-73 -127 -119 -207 -46 -80 -93 -161 -105 -180 -12 -19 -55 -93 -95 -165 -116
-206 -139 -240 -155 -224 -7 8 -48 75 -91 149 -200 350 -336 586 -366 636
l-33 54 -392 0 c-216 0 -393 -2 -393 -4z"/>
<path d="M4674 3419 c-16 -5 -40 -20 -53 -33 l-23 -24 41 -134 c97 -320 138
-451 227 -738 116 -374 142 -458 195 -630 26 -85 50 -144 64 -159 44 -45 165
-37 199 14 9 13 24 54 35 92 25 86 38 131 118 388 36 116 74 239 84 275 11 36
28 92 38 125 11 33 31 101 46 150 15 50 48 160 75 245 111 359 112 364 103
379 -32 51 -114 75 -151 44 -23 -18 -26 -28 -127 -373 -18 -63 -70 -239 -115
-390 -45 -151 -98 -329 -116 -395 -63 -218 -86 -286 -97 -282 -13 4 -59 153
-222 712 -13 44 -39 134 -59 200 -20 66 -53 174 -72 240 -87 288 -84 282 -110
294 -28 13 -37 13 -80 0z"/>
<path d="M8732 3329 c-87 -56 -39 -189 68 -189 108 0 155 134 66 189 -42 27
-92 26 -134 0z"/>
<path d="M9470 2819 c-193 -22 -310 -144 -310 -324 0 -87 23 -148 73 -191 57
-48 94 -66 217 -104 162 -50 223 -81 259 -131 60 -82 35 -186 -54 -229 -106
-51 -270 -34 -386 41 -33 22 -70 39 -83 39 -50 0 -73 -85 -37 -132 29 -36 131
-87 208 -103 82 -18 222 -19 295 -4 119 25 204 95 239 194 27 77 29 127 6 195
-45 140 -120 192 -382 265 -88 25 -150 60 -174 98 -57 93 12 212 137 238 72
15 148 4 246 -33 91 -35 113 -31 140 27 16 33 16 38 2 60 -44 68 -233 112
-396 94z"/>
<path d="M7460 2806 c-142 -40 -272 -155 -314 -280 -30 -87 -39 -177 -33 -321
3 -78 13 -167 22 -200 34 -127 113 -220 240 -280 85 -40 160 -55 274 -55 141
0 267 39 336 104 40 38 43 58 15 104 -26 42 -51 41 -137 -2 -92 -47 -149 -59
-241 -54 -136 8 -246 75 -291 178 -21 50 -36 168 -24 187 7 9 92 13 328 15
302 3 322 4 347 23 87 65 82 264 -10 399 -61 88 -154 155 -254 182 -64 17
-197 17 -258 0z m257 -162 c84 -41 135 -115 147 -216 7 -53 5 -60 -18 -83
l-25 -25 -258 2 -258 3 3 80 c3 65 9 89 31 130 74 132 236 179 378 109z"/>
<path d="M5979 2799 c-46 -17 -49 -38 -49 -377 0 -346 7 -407 55 -503 53 -103
174 -201 293 -235 84 -25 218 -15 306 22 82 34 189 128 228 201 54 98 58 137
58 514 0 339 0 346 -21 365 -29 26 -109 26 -137 1 -20 -18 -21 -31 -24 -375
-3 -356 -3 -357 -28 -407 -49 -99 -162 -175 -260 -175 -70 0 -144 35 -199 96
-79 86 -81 100 -81 493 -1 362 0 360 -54 381 -32 12 -52 12 -87 -1z"/>
<path d="M8737 2790 l-26 -21 -3 -672 -3 -672 -24 -49 c-26 -52 -78 -85 -133
-86 -75 0 -95 -110 -27 -145 35 -19 71 -19 130 -1 123 37 184 106 226 253 14
50 17 141 21 677 2 340 1 638 -3 662 -5 35 -12 47 -35 59 -41 21 -93 19 -123
-5z"/>
<path d="M8294 1891 c-74 -45 -86 -117 -30 -179 30 -32 40 -37 78 -37 55 0 95
25 115 73 21 50 2 107 -46 139 -41 28 -76 29 -117 4z"/>
</g>
</svg>
